<svg width="162" height="44" viewBox="0 0 162 44" fill="none" xmlns="http://www.w3.org/2000/svg">
<path d="M120.896 0.532227H155.955C159.294 0.532227 162 3.20608 162 6.50445V37.56C162 40.8584 159.294 43.5322 155.955 43.5322H120.896V0.532227Z" fill="#1B1B1B"/>
<path d="M119.687 1.72667H155.955C158.626 1.72667 160.791 3.86576 160.791 6.50445V37.56C160.791 40.1987 158.626 42.3378 155.955 42.3378H119.687V1.72667Z" fill="white"/>
<path d="M4.83582 6.50445C4.83582 3.20608 7.54216 0.532227 10.8806 0.532227H120.896C124.234 0.532227 126.94 3.20608 126.94 6.50445V37.56C126.94 40.8584 124.234 43.5322 120.896 43.5322H10.8806C7.54216 43.5322 4.83582 40.8584 4.83582 37.56V6.50445Z" fill="#1B1B1B"/>
<path d="M34.8371 30.5606C34.2568 30.5606 33.5959 30.457 32.8544 30.25C32.129 30.043 31.3634 29.82 30.5574 29.5811C29.7675 29.3263 28.9777 29.1432 28.1878 29.0317C27.6398 29.5413 27.124 29.9076 26.6404 30.1306C26.1729 30.3376 25.7538 30.4411 25.3831 30.4411C24.9156 30.4411 24.5207 30.3057 24.1983 30.035C23.8759 29.7643 23.6341 29.4219 23.4729 29.0078C23.3117 28.5778 23.2311 28.1398 23.2311 27.6939C23.2311 27.232 23.3117 26.7941 23.4729 26.38C23.6502 25.9659 23.9162 25.6315 24.2708 25.3767C24.6254 25.1059 25.0768 24.9706 25.6248 24.9706C25.7377 24.9706 25.8586 24.9785 25.9875 24.9944C26.1165 25.0104 26.2535 25.0343 26.3986 25.0661C26.7048 24.1424 26.9708 23.1232 27.1965 22.0083C27.4383 20.8776 27.6237 19.7707 27.7526 18.6878C27.8977 17.6048 27.9702 16.6652 27.9702 15.8689C27.9702 15.5504 27.9541 15.3274 27.9219 15.2C27.8896 15.0567 27.8332 14.9133 27.7526 14.77L27.7284 14.6983C27.9219 14.1887 28.2442 13.7906 28.6956 13.5039C29.1469 13.2172 29.6225 13.0739 30.1222 13.0739C30.6702 13.0739 31.1216 13.273 31.4762 13.6711C31.8308 14.0533 32.0081 14.6983 32.0081 15.6061C32.0081 16.1794 31.9356 16.8961 31.7905 17.7561C31.6616 18.6002 31.4762 19.5159 31.2344 20.5033C30.9926 21.4748 30.7266 22.4383 30.4365 23.3939C30.1463 24.3494 29.8562 25.2015 29.566 25.95C30.2753 26.1093 30.9845 26.2924 31.6938 26.4994C32.4192 26.7065 33.1284 26.81 33.8216 26.81C34.3535 26.81 34.8613 26.7144 35.3448 26.5233C35.8445 26.3322 36.312 25.9819 36.7472 25.4722C37.0696 25.6793 37.3034 25.9739 37.4484 26.3561C37.6096 26.7383 37.6902 27.1444 37.6902 27.5744C37.6902 28.0522 37.5854 28.522 37.3759 28.9839C37.1825 29.4298 36.8762 29.8041 36.4571 30.1067C36.038 30.4093 35.498 30.5606 34.8371 30.5606Z" fill="white"/>
<path d="M36.0181 20.2406L35.9697 20.0256C36.8724 19.4522 37.3238 18.632 37.3238 17.565C37.3238 17.1987 37.2754 16.7926 37.1787 16.3467C37.1464 16.1715 37.1142 15.9963 37.082 15.8211C37.0658 15.6459 37.0578 15.4707 37.0578 15.2956C37.0578 14.4833 37.2754 13.8702 37.7106 13.4561C38.162 13.042 38.6617 12.835 39.2097 12.835C39.8545 12.835 40.3542 13.0739 40.7088 13.5517C41.0635 14.0135 41.2408 14.5869 41.2408 15.2717C41.2408 15.7972 41.1199 16.3546 40.8781 16.9439C40.6524 17.5172 40.3058 18.0587 39.8384 18.5683C39.2581 19.1735 38.6214 19.6035 37.9282 19.8583C37.2512 20.1132 36.6145 20.2406 36.0181 20.2406Z" fill="white"/>
<path d="M48.7208 30.5128C48.1566 30.5128 47.665 30.3296 47.2459 29.9633C46.8268 29.597 46.6172 28.9998 46.6172 28.1717C46.6172 28.092 46.6172 28.0124 46.6172 27.9328C46.6172 27.8532 46.6253 27.7735 46.6414 27.6939C46.1578 28.6494 45.6098 29.3582 44.9972 29.82C44.4008 30.2659 43.7963 30.4889 43.1838 30.4889C42.6196 30.4889 42.0877 30.2978 41.588 29.9156C41.0883 29.5174 40.6853 28.9361 40.379 28.1717C40.0727 27.4072 39.9196 26.4835 39.9196 25.4006C39.9196 24.2857 40.0727 23.2904 40.379 22.4144C40.7014 21.5385 41.1205 20.798 41.6363 20.1928C42.1521 19.5876 42.7163 19.1337 43.3289 18.8311C43.9414 18.5126 44.5378 18.3533 45.1181 18.3533C45.7629 18.3533 46.3432 18.5524 46.859 18.9506C47.3748 19.3328 47.7295 19.9459 47.9229 20.79C47.9713 20.5193 48.0035 20.2724 48.0196 20.0494C48.0518 19.8265 48.068 19.6752 48.068 19.5956C48.0841 19.1656 48.3017 18.847 48.7208 18.64C49.156 18.433 49.6315 18.3294 50.1474 18.3294C50.5987 18.3294 51.0259 18.417 51.4289 18.5922C51.8319 18.7674 52.1059 19.062 52.2509 19.4761L52.2993 19.6194C52.1059 20.0494 51.9124 20.567 51.719 21.1722C51.5256 21.7774 51.3483 22.4144 51.1871 23.0833C51.0259 23.7363 50.8969 24.3813 50.8002 25.0183C50.7035 25.6394 50.6551 26.1889 50.6551 26.6667C50.6551 27.1922 50.7115 27.5585 50.8244 27.7656C50.9372 27.9567 51.0742 28.0522 51.2354 28.0522C51.5095 28.0522 51.7593 27.8611 51.985 27.4789L52.1784 27.5744C52.1784 28.1159 52.0011 28.6096 51.6465 29.0556C51.2918 29.5015 50.8486 29.8598 50.3166 30.1306C49.7847 30.3854 49.2527 30.5128 48.7208 30.5128ZM44.7796 27.4789C45.1987 27.4789 45.6581 27.1126 46.1578 26.38C46.6736 25.6315 47.1169 24.5644 47.4877 23.1789C47.5199 23.0356 47.5521 22.9002 47.5844 22.7728C47.6166 22.6294 47.6408 22.4941 47.6569 22.3667C47.399 21.7774 47.125 21.3633 46.8348 21.1244C46.5608 20.8696 46.2868 20.7422 46.0127 20.7422C45.6098 20.7422 45.231 20.9572 44.8763 21.3872C44.5378 21.8013 44.2557 22.3269 44.0301 22.9639C43.8205 23.6009 43.7157 24.238 43.7157 24.875C43.7157 25.7509 43.8124 26.4039 44.0059 26.8339C44.2154 27.2639 44.4733 27.4789 44.7796 27.4789Z" fill="white"/>
<path d="M59.3014 35.1711C58.5116 35.1711 57.8587 34.9402 57.3429 34.4783C56.8271 34.0165 56.5692 33.3635 56.5692 32.5194C56.5692 31.6117 56.8916 30.5446 57.5364 29.3183C57.4235 29.3502 57.3107 29.3741 57.1978 29.39C57.085 29.4059 56.9722 29.4139 56.8593 29.4139C55.9244 29.4139 55.1346 29.0157 54.4898 28.2194C53.8611 27.4072 53.5468 26.2844 53.5468 24.8511C53.5468 23.5611 53.7967 22.4224 54.2964 21.435C54.8122 20.4476 55.465 19.6752 56.2549 19.1178C57.0447 18.5604 57.8668 18.2817 58.7211 18.2817C59.3175 18.2817 59.8575 18.433 60.3411 18.7356C60.8247 19.0222 61.2196 19.492 61.5259 20.145C61.542 19.9857 61.5501 19.8424 61.5501 19.715C61.5501 19.5876 61.5501 19.4682 61.5501 19.3567C61.5501 19.0859 61.7596 18.863 62.1787 18.6878C62.5978 18.5126 63.0653 18.425 63.5811 18.425C64.0486 18.425 64.4838 18.5126 64.8868 18.6878C65.2898 18.863 65.5558 19.1576 65.6847 19.5717L65.7331 19.715C65.588 19.8424 65.459 20.2565 65.3462 20.9572C65.2495 21.658 65.1286 22.6294 64.9835 23.8717C64.8868 24.652 64.7659 25.5439 64.6208 26.5472C64.4758 27.5346 64.2743 28.538 64.0163 29.5572C63.7746 30.5606 63.4522 31.4843 63.0492 32.3283C62.6462 33.1883 62.1384 33.8732 61.5259 34.3828C60.9134 34.9083 60.1719 35.1711 59.3014 35.1711ZM58.5035 26.6667C58.971 26.6667 59.4868 26.2924 60.051 25.5439C60.6313 24.7794 61.0907 23.6885 61.4292 22.2711C61.139 21.65 60.8408 21.212 60.5346 20.9572C60.2444 20.6865 59.9462 20.5511 59.6399 20.5511C59.237 20.5511 58.8581 20.7502 58.5035 21.1483C58.1489 21.5465 57.8587 22.0561 57.6331 22.6772C57.4235 23.2824 57.3187 23.9115 57.3187 24.5644C57.3187 25.2333 57.4316 25.7509 57.6572 26.1172C57.8829 26.4835 58.165 26.6667 58.5035 26.6667ZM58.2134 32.4239C58.7614 32.4239 59.3175 31.8904 59.8817 30.8233C60.462 29.7722 60.865 28.2832 61.0907 26.3561C59.8656 27.9965 59.0113 29.2626 58.5277 30.1544C58.0602 31.0304 57.8265 31.6515 57.8265 32.0178C57.8265 32.2885 57.9555 32.4239 58.2134 32.4239Z" fill="white"/>
<path d="M71.8946 30.5606C70.7179 30.5606 69.7426 30.3296 68.9689 29.8678C68.1952 29.39 67.6149 28.7689 67.228 28.0044C66.8411 27.2241 66.6477 26.388 66.6477 25.4961C66.6477 24.652 66.8089 23.808 67.1313 22.9639C67.4698 22.1039 67.9534 21.3235 68.582 20.6228C69.2268 19.922 70.0006 19.3567 70.9032 18.9267C71.8221 18.4967 72.8537 18.2817 73.9982 18.2817C75.4167 18.2817 76.4483 18.6002 77.0931 19.2372C77.754 19.8583 78.0844 20.6148 78.0844 21.5067C78.0844 22.2711 77.8749 22.9798 77.4558 23.6328C77.0528 24.2698 76.5128 24.7874 75.8358 25.1856C75.1588 25.5678 74.4173 25.7589 73.6113 25.7589C73.1922 25.7589 72.765 25.6952 72.3298 25.5678C71.8946 25.4404 71.4674 25.2413 71.0483 24.9706C71.1289 25.958 71.4191 26.6746 71.9188 27.1206C72.4185 27.5665 73.0149 27.7894 73.708 27.7894C74.1916 27.7894 74.6752 27.7019 75.1588 27.5267C75.6423 27.3356 76.0856 27.0967 76.4886 26.81C76.9077 26.5074 77.2301 26.1889 77.4558 25.8544L77.625 25.9739C77.625 26.802 77.4477 27.5107 77.0931 28.1C76.7546 28.6733 76.3032 29.1432 75.7391 29.5094C75.1749 29.8757 74.5543 30.1465 73.8773 30.3217C73.2164 30.4809 72.5555 30.5606 71.8946 30.5606ZM72.4507 24.1106C72.9665 24.1106 73.3856 23.9672 73.708 23.6806C74.0304 23.378 74.2722 23.0276 74.4334 22.6294C74.5946 22.2313 74.6752 21.8809 74.6752 21.5783C74.6752 21.212 74.5704 20.9094 74.3609 20.6706C74.1513 20.4157 73.8612 20.2883 73.4904 20.2883C73.2003 20.2883 72.8779 20.3919 72.5232 20.5989C72.1847 20.8059 71.8785 21.1643 71.6044 21.6739C71.3304 22.1676 71.1531 22.8604 71.0725 23.7522C71.5883 23.9911 72.0477 24.1106 72.4507 24.1106Z" fill="white"/>
<path d="M82.1813 30.465C81.5849 30.465 81.0449 30.2341 80.5613 29.7722C80.0777 29.2944 79.8359 28.6335 79.8359 27.7894C79.8359 27.3754 79.8923 26.9056 80.0052 26.38C80.118 25.8544 80.2389 25.3209 80.3679 24.7794C80.5129 24.238 80.6419 23.7283 80.7547 23.2506C80.8676 22.7728 80.924 22.3826 80.924 22.08C80.924 21.7615 80.8595 21.5146 80.7305 21.3394C80.6016 21.1483 80.4323 21.0528 80.2228 21.0528C79.9487 21.0528 79.6505 21.212 79.3282 21.5306L79.1831 21.435C79.167 21.1802 79.2234 20.8776 79.3523 20.5272C79.4813 20.1769 79.6747 19.8424 79.9326 19.5239C80.2067 19.1894 80.5532 18.9107 80.9723 18.6878C81.3914 18.4648 81.8911 18.3533 82.4714 18.3533C83.3258 18.3533 83.9544 18.6002 84.3574 19.0939C84.7765 19.5717 84.9861 20.1609 84.9861 20.8617C84.9861 21.1165 84.9619 21.3633 84.9135 21.6022C85.252 21.1085 85.6711 20.6148 86.1708 20.1211C86.6705 19.6115 87.2186 19.1894 87.815 18.855C88.4276 18.5206 89.0562 18.3533 89.701 18.3533C90.4586 18.3533 90.9744 18.5922 91.2485 19.07C91.5225 19.5478 91.6595 20.145 91.6595 20.8617C91.6595 21.5306 91.587 22.2472 91.4419 23.0117C91.2968 23.7761 91.1517 24.5167 91.0067 25.2333C90.8616 25.9341 90.789 26.5233 90.789 27.0011C90.789 27.6382 90.9744 27.9567 91.3452 27.9567C91.5386 27.9567 91.7078 27.9009 91.8529 27.7894C91.998 27.662 92.0947 27.5426 92.1431 27.4311L92.3123 27.5028C92.3123 28.092 92.1431 28.6096 91.8046 29.0556C91.4822 29.5015 91.0711 29.8519 90.5714 30.1067C90.0717 30.3456 89.564 30.465 89.0482 30.465C88.4195 30.465 87.8634 30.25 87.3798 29.82C86.8962 29.39 86.6544 28.6893 86.6544 27.7178C86.6544 27.1444 86.727 26.5233 86.872 25.8544C87.0332 25.1856 87.1863 24.5406 87.3314 23.9194C87.4765 23.2983 87.549 22.7887 87.549 22.3906C87.549 22.1517 87.5007 21.9685 87.404 21.8411C87.3234 21.6978 87.1702 21.6261 86.9446 21.6261C86.5738 21.6261 86.1628 21.7933 85.7114 22.1278C85.2762 22.4622 84.8974 22.9082 84.575 23.4656C84.2687 24.023 84.1156 24.6361 84.1156 25.305C84.1156 25.735 84.164 26.1491 84.2607 26.5472C84.3735 26.9454 84.4299 27.3754 84.4299 27.8372C84.4299 28.6972 84.2043 29.3502 83.7529 29.7961C83.3016 30.242 82.7777 30.465 82.1813 30.465Z" fill="white"/>
<path d="M97.0482 30.4889C96.4679 30.4889 95.9199 30.2898 95.404 29.8917C94.9043 29.4935 94.4933 28.9122 94.1709 28.1478C93.8646 27.3833 93.7115 26.4596 93.7115 25.3767C93.7115 24.2619 93.8727 23.2665 94.1951 22.3906C94.5175 21.5146 94.9366 20.7741 95.4524 20.1689C95.9843 19.5478 96.5566 19.078 97.1691 18.7594C97.7978 18.4409 98.4103 18.2817 99.0067 18.2817C99.6676 18.2817 100.256 18.4887 100.772 18.9028C101.288 19.3009 101.642 19.93 101.836 20.79C101.981 19.9937 102.102 19.2372 102.198 18.5206C102.311 17.788 102.368 17.143 102.368 16.5856C102.368 15.853 102.271 15.3194 102.077 14.985V14.8417C102.448 14.4276 102.851 14.125 103.286 13.9339C103.738 13.7269 104.165 13.6233 104.568 13.6233C105.1 13.6233 105.551 13.7906 105.922 14.125C106.293 14.4435 106.478 14.9054 106.478 15.5106C106.478 15.845 106.422 16.3387 106.309 16.9917C106.196 17.6446 106.059 18.3932 105.898 19.2372C105.737 20.0654 105.567 20.9254 105.39 21.8172C105.229 22.6932 105.092 23.5372 104.979 24.3494C104.866 25.1457 104.81 25.8385 104.81 26.4278C104.81 26.9215 104.858 27.3196 104.955 27.6222C105.068 27.9089 105.245 28.0522 105.487 28.0522C105.664 28.0522 105.841 27.9965 106.019 27.885C106.212 27.7576 106.341 27.6143 106.406 27.455L106.575 27.5744C106.575 28.1 106.406 28.5857 106.067 29.0317C105.729 29.4617 105.301 29.812 104.786 30.0828C104.27 30.3535 103.738 30.4889 103.19 30.4889C102.593 30.4889 102.118 30.3296 101.763 30.0111C101.425 29.6767 101.183 29.2546 101.038 28.745C100.893 28.2354 100.812 27.7098 100.796 27.1683C100.296 28.315 99.7079 29.1591 99.0309 29.7006C98.37 30.2261 97.7091 30.4889 97.0482 30.4889ZM98.6682 27.455C99.0873 27.455 99.5548 27.0807 100.071 26.3322C100.586 25.5837 101.038 24.4928 101.425 23.0594L101.57 22.3189C101.312 21.7296 101.03 21.3156 100.723 21.0767C100.433 20.8219 100.151 20.6944 99.8772 20.6944C99.4742 20.6944 99.0954 20.9174 98.7408 21.3633C98.3861 21.7933 98.096 22.3507 97.8703 23.0356C97.6608 23.7044 97.556 24.4132 97.556 25.1617C97.556 25.8783 97.6608 26.4437 97.8703 26.8578C98.0799 27.2559 98.3458 27.455 98.6682 27.455Z" fill="white"/>
<path d="M116.465 30.5128C115.901 30.5128 115.409 30.3296 114.99 29.9633C114.571 29.597 114.361 28.9998 114.361 28.1717C114.361 28.092 114.361 28.0124 114.361 27.9328C114.361 27.8532 114.369 27.7735 114.385 27.6939C113.902 28.6494 113.354 29.3582 112.741 29.82C112.145 30.2659 111.54 30.4889 110.928 30.4889C110.364 30.4889 109.832 30.2978 109.332 29.9156C108.832 29.5174 108.429 28.9361 108.123 28.1717C107.817 27.4072 107.664 26.4835 107.664 25.4006C107.664 24.2857 107.817 23.2904 108.123 22.4144C108.445 21.5385 108.865 20.798 109.38 20.1928C109.896 19.5876 110.46 19.1337 111.073 18.8311C111.685 18.5126 112.282 18.3533 112.862 18.3533C113.507 18.3533 114.087 18.5524 114.603 18.9506C115.119 19.3328 115.473 19.9459 115.667 20.79C115.715 20.5193 115.747 20.2724 115.764 20.0494C115.796 19.8265 115.812 19.6752 115.812 19.5956C115.828 19.1656 116.046 18.847 116.465 18.64C116.9 18.433 117.376 18.3294 117.891 18.3294C118.343 18.3294 118.77 18.417 119.173 18.5922C119.576 18.7674 119.85 19.062 119.995 19.4761L120.043 19.6194C119.85 20.0494 119.656 20.567 119.463 21.1722C119.27 21.7774 119.092 22.4144 118.931 23.0833C118.77 23.7363 118.641 24.3813 118.544 25.0183C118.447 25.6394 118.399 26.1889 118.399 26.6667C118.399 27.1922 118.456 27.5585 118.568 27.7656C118.681 27.9567 118.818 28.0522 118.979 28.0522C119.253 28.0522 119.503 27.8611 119.729 27.4789L119.922 27.5744C119.922 28.1159 119.745 28.6096 119.39 29.0556C119.036 29.5015 118.593 29.8598 118.061 30.1306C117.529 30.3854 116.997 30.5128 116.465 30.5128ZM112.524 27.4789C112.943 27.4789 113.402 27.1126 113.902 26.38C114.418 25.6315 114.861 24.5644 115.232 23.1789C115.264 23.0356 115.296 22.9002 115.328 22.7728C115.361 22.6294 115.385 22.4941 115.401 22.3667C115.143 21.7774 114.869 21.3633 114.579 21.1244C114.305 20.8696 114.031 20.7422 113.757 20.7422C113.354 20.7422 112.975 20.9572 112.62 21.3872C112.282 21.8013 112 22.3269 111.774 22.9639C111.564 23.6009 111.46 24.238 111.46 24.875C111.46 25.7509 111.556 26.4039 111.75 26.8339C111.959 27.2639 112.217 27.4789 112.524 27.4789Z" fill="white"/>
<path d="M135.389 30.4889C134.809 30.4889 134.293 30.258 133.842 29.7961C133.391 29.3183 133.165 28.6494 133.165 27.7894C133.165 27.3754 133.213 26.9056 133.31 26.38C133.407 25.8544 133.52 25.3209 133.649 24.7794C133.778 24.222 133.89 23.7044 133.987 23.2267C134.084 22.733 134.132 22.3269 134.132 22.0083C134.132 21.6739 134.068 21.4111 133.939 21.22C133.826 21.013 133.673 20.9094 133.479 20.9094C133.173 20.9094 132.859 21.1165 132.536 21.5306L132.391 21.435C132.375 21.1802 132.432 20.8776 132.561 20.5272C132.689 20.1769 132.891 19.8424 133.165 19.5239C133.439 19.1894 133.786 18.9107 134.205 18.6878C134.64 18.4648 135.148 18.3533 135.728 18.3533C136.582 18.3533 137.203 18.6002 137.59 19.0939C137.977 19.5717 138.17 20.153 138.17 20.8378C138.17 20.9493 138.162 21.0687 138.146 21.1961C138.146 21.3076 138.138 21.4191 138.122 21.5306C138.702 20.4954 139.306 19.707 139.935 19.1656C140.58 18.6082 141.176 18.3294 141.724 18.3294C142.24 18.3294 142.619 18.5285 142.861 18.9267C143.103 19.3248 143.224 19.8026 143.224 20.36C143.224 20.8696 143.119 21.3872 142.909 21.9128C142.716 22.4383 142.418 22.8763 142.015 23.2267C141.628 23.5611 141.152 23.7204 140.588 23.7044L140.491 23.6567C140.475 23.2426 140.338 22.9161 140.08 22.6772C139.822 22.4383 139.532 22.3189 139.21 22.3189C138.775 22.3189 138.364 22.5339 137.977 22.9639C137.606 23.3939 137.421 24.015 137.421 24.8272C137.421 25.3209 137.477 25.8544 137.59 26.4278C137.703 27.0011 137.759 27.4869 137.759 27.885C137.759 28.3628 137.646 28.8007 137.421 29.1989C137.195 29.597 136.905 29.9156 136.55 30.1544C136.195 30.3774 135.809 30.4889 135.389 30.4889Z" fill="#1B1B1B"/>
<path d="M148.947 35.1711C148.141 35.1711 147.488 34.9243 146.988 34.4306C146.505 33.9528 146.263 33.2998 146.263 32.4717C146.263 32.0417 146.335 31.5639 146.48 31.0383C146.642 30.5287 146.9 29.9872 147.254 29.4139C146.464 29.3661 145.812 29.1033 145.296 28.6256C144.796 28.1478 144.546 27.4232 144.546 26.4517C144.546 25.8783 144.619 25.2652 144.764 24.6122C144.925 23.9433 145.078 23.3222 145.223 22.7489C145.368 22.1596 145.441 21.7057 145.441 21.3872C145.441 21.1483 145.392 20.9811 145.296 20.8856C145.199 20.7741 145.086 20.7183 144.957 20.7183C144.828 20.7183 144.683 20.7741 144.522 20.8856C144.377 20.9811 144.264 21.1324 144.184 21.3394L143.772 20.9094C143.869 20.4157 144.079 19.9778 144.401 19.5956C144.723 19.2133 145.118 18.9107 145.586 18.6878C146.053 18.4648 146.537 18.3533 147.037 18.3533C147.601 18.3533 148.092 18.5365 148.512 18.9028C148.931 19.2532 149.14 19.8982 149.14 20.8378C149.14 21.427 149.068 22.0641 148.923 22.7489C148.778 23.4178 148.632 24.0548 148.487 24.66C148.342 25.2493 148.27 25.7191 148.27 26.0694C148.27 26.388 148.334 26.6269 148.463 26.7861C148.608 26.9294 148.769 27.0011 148.947 27.0011C149.172 27.0011 149.43 26.8817 149.721 26.6428C150.011 26.388 150.285 25.9739 150.543 25.4006C150.801 24.8272 150.97 24.0548 151.05 23.0833C151.083 22.7807 151.107 22.3985 151.123 21.9367C151.139 21.4589 151.155 21.0209 151.171 20.6228C151.187 20.2087 151.195 19.9539 151.195 19.8583C151.195 19.285 151.405 18.8869 151.824 18.6639C152.259 18.425 152.735 18.3056 153.251 18.3056C153.702 18.3056 154.129 18.3932 154.532 18.5683C154.935 18.7435 155.209 19.0382 155.354 19.4522L155.403 19.5956C155.258 19.723 155.129 20.153 155.016 20.8856C154.919 21.6182 154.798 22.5976 154.653 23.8239C154.556 24.6202 154.435 25.52 154.29 26.5233C154.145 27.5267 153.944 28.538 153.686 29.5572C153.444 30.5606 153.114 31.4843 152.695 32.3283C152.292 33.1883 151.784 33.8732 151.171 34.3828C150.559 34.9083 149.817 35.1711 148.947 35.1711ZM148.366 32.4239C148.866 32.4239 149.309 31.97 149.696 31.0622C150.099 30.1704 150.414 28.8963 150.639 27.24C149.608 28.5459 148.898 29.5732 148.512 30.3217C148.125 31.0702 147.931 31.6117 147.931 31.9461C147.931 32.2646 148.076 32.4239 148.366 32.4239Z" fill="#1B1B1B"/>
<path d="M0 31.5878C0 30.2684 1.08254 29.1989 2.41791 29.1989H9.67164C11.007 29.1989 12.0896 30.2684 12.0896 31.5878C12.0896 32.9071 11.007 33.9767 9.67164 33.9767H2.41791C1.08254 33.9767 0 32.9071 0 31.5878Z" fill="#1B1B1B"/>
<path d="M1.20896 31.5878C1.20896 30.9281 1.75022 30.3933 2.41791 30.3933H9.67164C10.3393 30.3933 10.8806 30.9281 10.8806 31.5878C10.8806 32.2475 10.3393 32.7822 9.67164 32.7822H2.41791C1.75022 32.7822 1.20896 32.2475 1.20896 31.5878Z" fill="white"/>
<path d="M0 12.4767C0 11.1573 1.08254 10.0878 2.41791 10.0878H9.67164C11.007 10.0878 12.0896 11.1573 12.0896 12.4767C12.0896 13.796 11.007 14.8656 9.67164 14.8656H2.41791C1.08254 14.8656 0 13.796 0 12.4767Z" fill="#1B1B1B"/>
<path d="M1.20896 12.4767C1.20896 11.817 1.75022 11.2822 2.41791 11.2822H9.67164C10.3393 11.2822 10.8806 11.817 10.8806 12.4767C10.8806 13.1363 10.3393 13.6711 9.67164 13.6711H2.41791C1.75022 13.6711 1.20896 13.1363 1.20896 12.4767Z" fill="white"/>
<path d="M0 22.0322C0 20.7129 1.08254 19.6433 2.41791 19.6433H9.67164C11.007 19.6433 12.0896 20.7129 12.0896 22.0322C12.0896 23.3516 11.007 24.4211 9.67164 24.4211H2.41791C1.08254 24.4211 0 23.3516 0 22.0322Z" fill="#1B1B1B"/>
<path d="M1.20896 22.0322C1.20896 21.3726 1.75022 20.8378 2.41791 20.8378H9.67164C10.3393 20.8378 10.8806 21.3726 10.8806 22.0322C10.8806 22.6919 10.3393 23.2267 9.67164 23.2267H2.41791C1.75022 23.2267 1.20896 22.6919 1.20896 22.0322Z" fill="white"/>
</svg>
